<svg width="1254" height="1254" viewBox="0 0 1254 1254" fill="none" xmlns="http://www.w3.org/2000/svg">
<path d="M496.999 687H631.5C665 687 664.5 728.5 631.5 728.5H496.999C464.5 728.5 465 687 496.999 687Z" fill="#FE9208"/>
<path d="M314.995 338.507C440.495 121.135 799.5 110.5 940.777 309.001C1011.3 408.089 912 478.506 834.5 399.006C709.966 271.258 574.682 296.006 493.497 342.878C366.835 416.006 411.995 526.507 507.995 526.507H761.498C784.498 526.507 790.495 537.006 790.495 547.507C790.495 557.506 782.498 568.507 761.498 568.507H514.998C501.498 568.507 493.497 575.006 493.497 587.507C493.497 601.006 501.498 607.007 514.998 607.007H696.498C713.998 607.007 722.495 616.006 722.495 627.507C722.495 639.008 716.998 648.007 696.498 648.007H487.499C325.5 648.007 218.58 505.504 314.995 338.507Z" fill="#FE9208"/>
<path d="M870 614.998C860.001 605 832.5 600 832.5 635.499V686.998H764.5C751.502 686.998 733 698 733 713.998V750.498C733 773.5 752.002 781.998 764.5 781.998H817.15C822.001 781.998 826.501 784.5 820.5 794.498C758.002 918.999 490.5 968 399.5 737C363.454 645.5 252.992 686.998 275.5 770.998C366.469 1110.5 878.78 1124.5 973.5 770.998C978.323 752.999 988.5 736.999 973.5 721.998L870 614.998Z" fill="#011F43"/>
</svg>
